<?xml version="1.0" encoding="UTF-8" standalone="no"?>
<!DOCTYPE svg PUBLIC "-//W3C//DTD SVG 1.1//EN" "http://www.w3.org/Graphics/SVG/1.1/DTD/svg11.dtd">
<svg width="489.36" height="694.56" viewBox="0.00 0.00 2039.00 2894.00" xmlns="http://www.w3.org/2000/svg" xmlns:xlink="http://www.w3.org/1999/xlink">
<g stroke-linecap="round" id="hair">
<path d="M312.92,668.32 L312.93,424.80 L614.90,268.34 L833.95,341.87 L1029.53,434.19 L1221.79,340.03 L1445.03,269.12 L1743.51,424.80 L1742.17,666.15 L1598.28,684.53 L1654.04,702.32 L1669.21,790.56 L1437.49,801.52 L1227.51,776.90 L1030.32,711.91 L832.10,775.07 L616.40,799.86 L392.47,789.48 L404.02,699.13 L477.69,681.98 L312.92,668.32 Z" fill="none" stroke="rgb(0, 0, 0)" stroke-width="4.00" stroke-opacity="1.00" stroke-linejoin="miter"/>
<path d="M1364.55,1408.49 L1865.26,1408.36 L1816.31,1742.05 L1843.32,1971.20 L1393.14,1970.04 L1413.79,1743.52 L1364.55,1408.49 Z" fill="none" stroke="rgb(0, 0, 0)" stroke-width="4.00" stroke-opacity="1.00" stroke-linejoin="miter"/>
<path d="M1335.77,1453.52 L1449.74,1105.67 L1770.05,1102.97 L1885.86,1450.28 L1938.57,1179.67 L1831.37,997.39 L1643.65,865.85 L1578.30,866.93 L1390.87,993.86 L1282.30,1177.51 L1335.77,1453.52 Z" fill="none" stroke="rgb(0, 0, 0)" stroke-width="4.00" stroke-opacity="1.00" stroke-linejoin="miter"/>
</g>
</svg>
