<?xml version="1.0" encoding="UTF-8" standalone="no"?>
<!DOCTYPE svg PUBLIC "-//W3C//DTD SVG 1.1//EN" "http://www.w3.org/Graphics/SVG/1.1/DTD/svg11.dtd">
<svg width="489.36" height="694.56" viewBox="0.00 0.00 2039.00 2894.00" xmlns="http://www.w3.org/2000/svg" xmlns:xlink="http://www.w3.org/1999/xlink">
<g stroke-linecap="round" id="highlight-fill">
<path d="M431.53,1271.28 C433.13,1271.29 436.90,1272.27 438.29,1273.02 C439.66,1273.81 442.42,1276.48 443.24,1277.80 C444.02,1279.15 445.03,1282.79 445.05,1284.33 C445.03,1285.87 444.02,1289.51 443.24,1290.86 C442.42,1292.18 439.66,1294.85 438.29,1295.64 C436.90,1296.39 433.13,1297.37 431.53,1297.39 C429.93,1297.37 426.16,1296.39 424.77,1295.64 C423.40,1294.85 420.63,1292.18 419.82,1290.86 C419.04,1289.51 418.03,1285.87 418.01,1284.33 C418.03,1282.79 419.04,1279.15 419.82,1277.80 C420.63,1276.48 423.40,1273.81 424.77,1273.02 C426.16,1272.27 429.93,1271.29 431.53,1271.28 Z" fill="none" stroke="rgb(0, 0, 0)" stroke-width="4.00" stroke-opacity="1.00" stroke-linejoin="round"/>
<path d="M450.29,1289.20 C451.56,1289.22 454.36,1290.33 455.27,1291.18 C456.15,1292.05 457.31,1294.73 457.33,1295.95 C457.31,1297.17 456.15,1299.86 455.27,1300.73 C454.36,1301.58 451.56,1302.69 450.29,1302.71 C449.02,1302.69 446.23,1301.58 445.31,1300.73 C444.43,1299.86 443.27,1297.17 443.25,1295.95 C443.27,1294.73 444.43,1292.05 445.31,1291.18 C446.23,1290.33 449.02,1289.22 450.29,1289.20 Z" fill="none" stroke="rgb(0, 0, 0)" stroke-width="4.00" stroke-opacity="1.00" stroke-linejoin="round"/>
<path d="M709.72,1271.54 C711.30,1271.78 714.91,1273.26 716.19,1274.19 C717.44,1275.16 719.81,1278.18 720.44,1279.60 C721.03,1281.04 721.54,1284.78 721.35,1286.31 C721.12,1287.84 719.62,1291.31 718.67,1292.53 C717.68,1293.74 714.58,1296.00 713.11,1296.60 C711.63,1297.15 707.76,1297.61 706.18,1297.41 C704.60,1297.18 701.00,1295.70 699.72,1294.76 C698.47,1293.79 696.09,1290.78 695.46,1289.35 C694.87,1287.92 694.37,1284.17 694.56,1282.64 C694.78,1281.12 696.28,1277.64 697.24,1276.42 C698.22,1275.22 701.32,1272.95 702.79,1272.36 C704.27,1271.80 708.14,1271.34 709.72,1271.54 Z" fill="none" stroke="rgb(0, 0, 0)" stroke-width="4.00" stroke-opacity="1.00" stroke-linejoin="round"/>
<path d="M725.88,1291.84 C727.14,1292.04 729.75,1293.52 730.54,1294.48 C731.30,1295.47 732.08,1298.29 731.94,1299.50 C731.75,1300.70 730.24,1303.20 729.25,1303.95 C728.23,1304.67 725.31,1305.39 724.04,1305.24 C722.79,1305.04 720.17,1303.56 719.38,1302.60 C718.62,1301.61 717.84,1298.79 717.98,1297.58 C718.17,1296.38 719.68,1293.88 720.68,1293.13 C721.70,1292.41 724.62,1291.69 725.88,1291.84 Z" fill="none" stroke="rgb(0, 0, 0)" stroke-width="4.00" stroke-opacity="1.00" stroke-linejoin="round"/>
</g>
</svg>
