<?xml version="1.0" encoding="UTF-8" standalone="no"?>
<!DOCTYPE svg PUBLIC "-//W3C//DTD SVG 1.1//EN" "http://www.w3.org/Graphics/SVG/1.1/DTD/svg11.dtd">
<svg width="489.36" height="694.56" viewBox="0.00 0.00 2039.00 2894.00" xmlns="http://www.w3.org/2000/svg" xmlns:xlink="http://www.w3.org/1999/xlink">
<g stroke-linecap="round" transform="translate(-5.00, 277.00)" id="line">
<path d="M367.48,1145.31 L334.76,1050.59 L275.80,1038.50 L262.22,951.02 L306.91,906.19 L346.31,732.74 L415.72,720.10 L537.02,813.95 L549.66,886.37 L559.23,1015.48 L560.39,1030.63 L574.53,1069.89 L588.51,1033.48 L559.76,1015.13" fill="none" stroke="rgb(0, 0, 0)" stroke-width="4.00" stroke-opacity="1.00" stroke-linejoin="miter"/>
<path d="M551.17,902.83 L597.94,886.50 L457.64,671.59 L639.88,626.30 L799.11,732.83 L838.17,906.66 L884.69,952.27 L865.78,1036.82 L815.06,1048.46 L776.22,1146.51" fill="none" stroke="rgb(0, 0, 0)" stroke-width="4.00" stroke-opacity="1.00" stroke-linejoin="miter"/>
<path d="M369.14,1146.70 C398.23,1196.00 742.18,1198.17 776.37,1145.91" fill="none" stroke="rgb(0, 0, 0)" stroke-width="4.00" stroke-opacity="1.00" stroke-linejoin="round"/>
<path d="M893.71,1061.58 C893.71,1061.58 883.34,1096.97 883.34,1096.97 C883.34,1096.97 845.45,1101.26 845.45,1101.26 C845.45,1101.26 846.88,1153.10 846.88,1153.10 C846.88,1153.10 884.42,1155.61 884.42,1155.61 C884.42,1155.61 893.00,1188.50 893.00,1188.50" fill="none" stroke="rgb(0, 0, 0)" stroke-width="4.00" stroke-opacity="1.00" stroke-linejoin="round"/>
<path d="M895.14,1059.07 C947.16,1031.07 990.48,1065.27 990.96,1113.42 C989.29,1159.66 943.01,1203.29 894.78,1188.86" fill="none" stroke="rgb(0, 0, 0)" stroke-width="4.00" stroke-opacity="1.00" stroke-linejoin="round"/>
<path d="M825.94,1374.96 L891.38,1380.88" fill="none" stroke="rgb(0, 0, 0)" stroke-width="4.00" stroke-opacity="1.00" stroke-linejoin="round"/>
<path d="M577.44,1240.43 L769.59,1282.22 L815.11,1247.52 L869.21,1277.37 L863.99,1328.49 L1005.40,1323.26 L985.25,1606.83 L750.82,1584.94 L664.00,1585.19" fill="none" stroke="rgb(0, 0, 0)" stroke-width="4.00" stroke-opacity="1.00" stroke-linejoin="miter"/>
<path d="M578.56,1241.43 L386.41,1283.22 L340.89,1248.52 L286.79,1278.37 L292.01,1329.49 L150.60,1324.26 L170.75,1607.83 L405.18,1585.94 L492.00,1586.19" fill="none" stroke="rgb(0, 0, 0)" stroke-width="4.00" stroke-opacity="1.00" stroke-linejoin="miter"/>
<path d="M492.89,1584.47 C492.89,1584.47 493.48,1431.46 493.48,1431.46 C493.08,1333.02 665.47,1331.67 664.80,1431.78 C664.80,1431.78 664.35,1585.25 664.35,1585.25" fill="none" stroke="rgb(0, 0, 0)" stroke-width="4.00" stroke-opacity="1.00" stroke-linejoin="round"/>
<path d="M241.29,1053.58 C241.29,1053.58 251.66,1088.97 251.66,1088.97 C251.66,1088.97 289.55,1093.26 289.55,1093.26 C289.55,1093.26 288.12,1145.10 288.12,1145.10 C288.12,1145.10 250.58,1147.61 250.58,1147.61 C250.58,1147.61 242.00,1180.50 242.00,1180.50" fill="none" stroke="rgb(0, 0, 0)" stroke-width="4.00" stroke-opacity="1.00" stroke-linejoin="round"/>
<path d="M239.86,1051.07 C187.84,1023.07 144.52,1057.27 144.04,1105.42 C145.71,1151.66 191.99,1195.29 240.22,1180.86" fill="none" stroke="rgb(0, 0, 0)" stroke-width="4.00" stroke-opacity="1.00" stroke-linejoin="round"/>
<path d="M326.06,1375.96 L260.62,1381.88" fill="none" stroke="rgb(0, 0, 0)" stroke-width="4.00" stroke-opacity="1.00" stroke-linejoin="round"/>
<path d="M214.55,1920.67 C154.29,1920.62 154.71,1848.04 216.55,1848.70 C216.55,1848.70 345.90,1849.46 345.90,1849.46 C404.43,1848.87 405.58,1921.50 346.15,1920.87" fill="none" stroke="rgb(0, 0, 0)" stroke-width="4.00" stroke-opacity="1.00" stroke-linejoin="round"/>
<path d="M214.28,1920.15 L214.87,1943.67 L188.18,1943.95 L146.63,2247.83 L84.85,2285.16 L83.79,2465.39 L149.00,2498.90 L620.76,2498.90" fill="none" stroke="rgb(0, 0, 0)" stroke-width="4.00" stroke-opacity="1.00" stroke-linejoin="miter"/>
<path d="M346.59,1920.42 L346.81,1944.60 L376.18,1944.55 L423.62,2247.45 L621.59,2247.54 L653.19,2195.89 L866.53,2195.92 L897.50,2246.40 L1099.27,2246.26 L1098.45,2498.05 L897.77,2498.79" fill="none" stroke="rgb(0, 0, 0)" stroke-width="4.00" stroke-opacity="1.00" stroke-linejoin="miter"/>
<path d="M620.96,2498.88 C645.91,2542.88 723.44,2551.93 761.62,2508.39 C799.36,2552.19 871.53,2543.82 897.79,2498.88" fill="none" stroke="rgb(0, 0, 0)" stroke-width="4.00" stroke-opacity="1.00" stroke-linejoin="round"/>
<path d="M1031.98,469.95 L931.02,508.08 L829.97,476.85 L803.74,538.06 L652.70,551.64 L621.15,502.32 L580.29,560.69 L415.67,495.63 L429.25,438.50 L547.60,395.96 L336.65,373.08 L281.22,339.73 L281.00,200.66 L337.39,163.59 L342.74,98.06 L544.60,-5.92 L620.65,17.31 L830.41,86.42 L949.64,77.00 L1032.28,120.07" fill="none" stroke="rgb(0, 0, 0)" stroke-width="4.00" stroke-opacity="1.00" stroke-linejoin="miter"/>
<path d="M1034.02,469.95 L1134.98,508.08 L1236.03,476.85 L1262.26,538.06 L1413.30,551.64 L1444.85,502.32 L1485.71,560.69 L1650.33,495.63 L1636.75,438.50 L1518.40,395.96 L1729.35,373.08 L1784.78,339.73 L1785.00,200.66 L1728.61,163.59 L1723.26,98.06 L1521.40,-5.92 L1445.35,17.31 L1235.59,86.42 L1116.36,77.00 L1033.72,120.07" fill="none" stroke="rgb(0, 0, 0)" stroke-width="4.00" stroke-opacity="1.00" stroke-linejoin="miter"/>
<path d="M1033.60,121.20 L1033.74,183.97" fill="none" stroke="rgb(0, 0, 0)" stroke-width="4.00" stroke-opacity="1.00" stroke-linejoin="miter"/>
<path d="M1033.91,413.68 L1032.77,469.75" fill="none" stroke="rgb(0, 0, 0)" stroke-width="4.00" stroke-opacity="1.00" stroke-linejoin="miter"/>
<path d="M507.92,493.75 L511.22,505.97 L569.36,511.25 L574.98,497.71" fill="none" stroke="rgb(0, 0, 0)" stroke-width="4.00" stroke-opacity="1.00" stroke-linejoin="miter"/>
<path d="M895.53,455.67 L909.74,465.79 L968.32,444.97 L969.48,430.57" fill="none" stroke="rgb(0, 0, 0)" stroke-width="4.00" stroke-opacity="1.00" stroke-linejoin="miter"/>
<path d="M1555.08,493.75 L1551.78,505.97 L1493.64,511.25 L1488.02,497.71" fill="none" stroke="rgb(0, 0, 0)" stroke-width="4.00" stroke-opacity="1.00" stroke-linejoin="miter"/>
<path d="M1167.47,455.67 L1153.26,465.79 L1094.68,444.97 L1093.52,430.57" fill="none" stroke="rgb(0, 0, 0)" stroke-width="4.00" stroke-opacity="1.00" stroke-linejoin="miter"/>
<path d="M1618.13,807.03 L1440.78,807.55 L1344.09,1116.39 L1325.35,1015.27 L1280.85,1014.49 L1271.84,965.89 L1311.59,950.88 L1304.34,903.59 L1406.17,731.90 L1467.05,687.98 L1445.55,637.20 L1493.43,605.76 L1531.12,642.86 L1585.60,608.24 L1616.56,752.78" fill="none" stroke="rgb(0, 0, 0)" stroke-width="4.00" stroke-opacity="1.00" stroke-linejoin="miter"/>
<path d="M1612.87,807.03 L1790.22,807.55 L1886.91,1116.39 L1905.65,1015.27 L1950.15,1014.49 L1959.16,965.89 L1919.41,950.88 L1926.66,903.59 L1824.83,731.90 L1763.95,687.98 L1785.45,637.20 L1737.57,605.76 L1699.88,642.86 L1645.40,608.24 L1589.61,626.44" fill="none" stroke="rgb(0, 0, 0)" stroke-width="4.00" stroke-opacity="1.00" stroke-linejoin="miter"/>
<path d="M1534.63,1674.99 L1420.77,1674.58 L1440.70,1462.81 L1389.87,1151.39 L1420.21,1077.50 L1816.80,1078.58 L1850.53,1151.04 L1801.62,1460.99 L1823.04,1674.06 L1708.74,1674.07" fill="none" stroke="rgb(0, 0, 0)" stroke-width="4.00" stroke-opacity="1.00" stroke-linejoin="miter"/>
<path d="M1534.82,1672.87 C1534.82,1672.87 1534.82,1607.84 1534.82,1607.84 C1534.54,1505.34 1709.67,1504.99 1709.17,1608.45 C1709.17,1608.45 1710.38,1673.49 1710.38,1673.49" fill="none" stroke="rgb(0, 0, 0)" stroke-width="4.00" stroke-opacity="1.00" stroke-linejoin="round"/>
<path d="M1845.64,2060.08 L1911.98,2060.38 L1965.04,2048.34 L1978.44,1966.31 L1936.49,1931.66 L1912.44,1885.30 L1955.95,1831.30 L1907.69,1752.87 L1844.13,1772.22 L1753.55,1772.30 L1689.22,1754.01 L1642.72,1833.51 L1680.80,1881.65 L1657.57,1928.55 L1568.92,1945.22 L1591.75,2074.88 L1686.05,2091.83" fill="none" stroke="rgb(0, 0, 0)" stroke-width="4.00" stroke-opacity="1.00" stroke-linejoin="miter"/>
<path d="M1686.77,2092.45 C1708.89,2090.91 1720.06,2081.76 1719.85,2059.53 C1719.85,2059.53 1752.34,2059.34 1752.34,2059.34 C1752.54,2107.72 1843.13,2108.48 1844.11,2060.68" fill="none" stroke="rgb(0, 0, 0)" stroke-width="4.00" stroke-opacity="1.00" stroke-linejoin="round"/>
<path d="M967.23,1775.65 L967.55,1795.96 L942.06,1796.00 L811.60,1752.59 L721.81,1783.38 L654.98,1956.79 L699.78,2041.27 L715.99,2109.13 L837.01,2145.94 L897.87,2098.69 L1172.03,2098.38 L1227.70,2146.01 L1351.28,2106.93 L1364.75,2039.79 L1409.62,1957.46 L1340.39,1782.97 L1252.97,1754.05 L1125.66,1796.33 L1095.83,1796.21 L1095.68,1773.99" fill="none" stroke="rgb(0, 0, 0)" stroke-width="4.00" stroke-opacity="1.00" stroke-linejoin="miter"/>
<path d="M966.81,1774.72 C906.54,1774.67 905.71,1702.04 967.55,1702.70 C967.55,1702.70 1096.90,1703.46 1096.90,1703.46 C1155.43,1702.87 1156.58,1775.50 1097.15,1774.87" fill="none" stroke="rgb(0, 0, 0)" stroke-width="4.00" stroke-opacity="1.00" stroke-linejoin="round"/>
<path d="M1158.59,1811.64 L1190.39,1932.11" fill="none" stroke="rgb(0, 0, 0)" stroke-width="4.00" stroke-opacity="1.00" stroke-linejoin="round"/>
<path d="M1238.67,1784.62 L1274.81,1906.77" fill="none" stroke="rgb(0, 0, 0)" stroke-width="4.00" stroke-opacity="1.00" stroke-linejoin="round"/>
<path d="M825.71,1784.28 L784.03,1912.37" fill="none" stroke="rgb(0, 0, 0)" stroke-width="4.00" stroke-opacity="1.00" stroke-linejoin="round"/>
<path d="M908.62,1809.90 L876.25,1934.96" fill="none" stroke="rgb(0, 0, 0)" stroke-width="4.00" stroke-opacity="1.00" stroke-linejoin="round"/>
<path d="M876.25,1934.73 L876.25,1934.26" fill="none" stroke="rgb(0, 0, 0)" stroke-width="4.00" stroke-opacity="1.00" stroke-linejoin="round"/>
<path d="M1495.36,2486.08 L1429.02,2486.38 L1375.96,2474.34 L1362.56,2392.31 L1404.51,2357.66 L1428.56,2311.30 L1385.05,2257.30 L1433.31,2178.87 L1496.87,2198.22 L1587.45,2198.30 L1651.78,2180.01 L1698.28,2259.51 L1660.20,2307.65 L1683.43,2354.55 L1772.08,2371.22 L1749.25,2500.88 L1654.95,2517.83" fill="none" stroke="rgb(0, 0, 0)" stroke-width="4.00" stroke-opacity="1.00" stroke-linejoin="miter"/>
<path d="M1654.23,2518.45 C1632.11,2516.91 1620.94,2507.76 1621.15,2485.53 C1621.15,2485.53 1588.66,2485.34 1588.66,2485.34 C1588.46,2533.72 1497.87,2534.48 1496.89,2486.68" fill="none" stroke="rgb(0, 0, 0)" stroke-width="4.00" stroke-opacity="1.00" stroke-linejoin="round"/>
</g>
</svg>
