<?xml version="1.0" encoding="UTF-8" standalone="no"?>
<!DOCTYPE svg PUBLIC "-//W3C//DTD SVG 1.1//EN" "http://www.w3.org/Graphics/SVG/1.1/DTD/svg11.dtd">
<svg width="489.36" height="694.56" viewBox="0.00 0.00 2039.00 2894.00" xmlns="http://www.w3.org/2000/svg" xmlns:xlink="http://www.w3.org/1999/xlink">
<g stroke-linecap="round" id="pupil-fill">
<path d="M431.82,1265.08 C457.43,1263.66 481.35,1286.10 480.27,1316.68 C473.03,1303.32 458.28,1302.91 451.31,1311.12 C450.56,1334.88 414.69,1333.29 413.99,1313.34 C403.29,1306.72 392.60,1307.97 385.62,1319.07 C382.19,1294.03 404.59,1265.88 431.82,1265.08 Z" fill="none" stroke="rgb(0, 0, 0)" stroke-width="4.00" stroke-opacity="1.00" stroke-linejoin="round"/>
<path d="M708.18,1265.08 C682.57,1263.66 658.65,1286.10 659.73,1316.68 C666.97,1303.32 681.72,1302.91 688.69,1311.12 C689.44,1334.88 725.31,1333.29 726.01,1313.34 C736.71,1306.72 747.40,1307.97 754.38,1319.07 C757.81,1294.03 735.41,1265.88 708.18,1265.08 Z" fill="none" stroke="rgb(0, 0, 0)" stroke-width="4.00" stroke-opacity="1.00" stroke-linejoin="round"/>
</g>
</svg>
