<?xml version="1.0" encoding="UTF-8" standalone="no"?>
<!DOCTYPE svg PUBLIC "-//W3C//DTD SVG 1.1//EN" "http://www.w3.org/Graphics/SVG/1.1/DTD/svg11.dtd">
<svg width="489.36" height="694.56" viewBox="0.00 0.00 2039.00 2894.00" xmlns="http://www.w3.org/2000/svg" xmlns:xlink="http://www.w3.org/1999/xlink">
<g stroke-linecap="round" id="shirt-stroke">
<path d="M962.48,2071.52 L1024.21,2097.98" fill="none" stroke="rgb(0, 0, 0)" stroke-width="7.00" stroke-opacity="1.00" stroke-linejoin="round"/>
<path d="M937.29,2074.88 L986.84,2132.83" fill="none" stroke="rgb(0, 0, 0)" stroke-width="7.00" stroke-opacity="1.00" stroke-linejoin="round"/>
<path d="M988.10,2134.93 L1025.05,2099.66" fill="none" stroke="rgb(0, 0, 0)" stroke-width="7.00" stroke-opacity="1.00" stroke-linejoin="round"/>
<path d="M1015.97,2109.20 L1014.53,2281.97" fill="none" stroke="rgb(0, 0, 0)" stroke-width="7.00" stroke-opacity="1.00" stroke-linejoin="round"/>
<path d="M1014.53,2281.97 L1014.53,2282.45" fill="none" stroke="rgb(0, 0, 0)" stroke-width="7.00" stroke-opacity="1.00" stroke-linejoin="round"/>
<path d="M1014.53,2282.45 L1014.53,2282.45" fill="none" stroke="rgb(0, 0, 0)" stroke-width="7.00" stroke-opacity="1.00" stroke-linejoin="round"/>
<path d="M1090.52,2071.52 L1028.79,2097.98" fill="none" stroke="rgb(0, 0, 0)" stroke-width="7.00" stroke-opacity="1.00" stroke-linejoin="round"/>
<path d="M1115.71,2074.88 L1066.16,2132.83" fill="none" stroke="rgb(0, 0, 0)" stroke-width="7.00" stroke-opacity="1.00" stroke-linejoin="round"/>
<path d="M1064.90,2134.93 L1027.95,2099.66" fill="none" stroke="rgb(0, 0, 0)" stroke-width="7.00" stroke-opacity="1.00" stroke-linejoin="round"/>
<path d="M1037.03,2109.20 L1038.47,2281.97" fill="none" stroke="rgb(0, 0, 0)" stroke-width="7.00" stroke-opacity="1.00" stroke-linejoin="round"/>
<path d="M1038.47,2281.97 L1038.47,2282.45" fill="none" stroke="rgb(0, 0, 0)" stroke-width="7.00" stroke-opacity="1.00" stroke-linejoin="round"/>
<path d="M1038.47,2282.45 L1038.47,2282.45" fill="none" stroke="rgb(0, 0, 0)" stroke-width="7.00" stroke-opacity="1.00" stroke-linejoin="round"/>
<path d="M1025.93,2111.44 C1027.32,2111.26 1030.55,2111.99 1031.68,2112.75 C1032.79,2113.54 1034.48,2116.22 1034.69,2117.51 C1034.86,2118.82 1034.02,2121.87 1033.20,2122.95 C1032.33,2124.00 1029.45,2125.64 1028.07,2125.87 C1026.68,2126.05 1023.45,2125.32 1022.31,2124.56 C1021.21,2123.77 1019.52,2121.09 1019.30,2119.80 C1019.13,2118.49 1019.98,2115.44 1020.80,2114.36 C1021.67,2113.31 1024.54,2111.67 1025.93,2111.44 Z" fill="none" stroke="rgb(0, 0, 0)" stroke-width="7.00" stroke-opacity="1.00" stroke-linejoin="round"/>
<path d="M1026.76,2184.77 C1028.07,2184.79 1030.97,2185.93 1031.91,2186.80 C1032.83,2187.70 1034.02,2190.45 1034.05,2191.70 C1034.02,2192.95 1032.83,2195.70 1031.91,2196.60 C1030.97,2197.47 1028.07,2198.61 1026.76,2198.63 C1025.44,2198.61 1022.54,2197.47 1021.60,2196.60 C1020.68,2195.70 1019.49,2192.95 1019.46,2191.70 C1019.49,2190.45 1020.68,2187.70 1021.60,2186.80 C1022.54,2185.93 1025.44,2184.79 1026.76,2184.77 Z" fill="none" stroke="rgb(0, 0, 0)" stroke-width="7.00" stroke-opacity="1.00" stroke-linejoin="round"/>
<path d="M1026.88,2258.18 C1028.13,2258.20 1030.88,2259.32 1031.78,2260.17 C1032.64,2261.06 1033.78,2263.76 1033.80,2264.99 C1033.78,2266.21 1032.64,2268.92 1031.78,2269.80 C1030.88,2270.65 1028.13,2271.77 1026.88,2271.79 C1025.63,2271.77 1022.88,2270.65 1021.98,2269.80 C1021.11,2268.92 1019.97,2266.21 1019.95,2264.99 C1019.97,2263.76 1021.11,2261.06 1021.98,2260.17 C1022.88,2259.32 1025.63,2258.20 1026.88,2258.18 Z" fill="none" stroke="rgb(0, 0, 0)" stroke-width="7.00" stroke-opacity="1.00" stroke-linejoin="round"/>
<path d="M908.50,2285.28 L1152.09,2285.65" fill="none" stroke="rgb(0, 0, 0)" stroke-width="7.00" stroke-opacity="1.00" stroke-linejoin="round"/>
<path d="M141.15,2426.79 L418.32,2426.97" fill="none" stroke="rgb(0, 0, 0)" stroke-width="7.00" stroke-opacity="1.00" stroke-linejoin="round"/>
<path d="M715.93,2227.91 L905.23,2284.35" fill="none" stroke="rgb(0, 0, 0)" stroke-width="7.00" stroke-opacity="1.00" stroke-linejoin="round"/>
<path d="M1345.36,2229.87 L1151.77,2285.35" fill="none" stroke="rgb(0, 0, 0)" stroke-width="7.00" stroke-opacity="1.00" stroke-linejoin="round"/>
<path d="M1567.94,2333.20 L1673.07,2317.10" fill="none" stroke="rgb(0, 0, 0)" stroke-width="7.00" stroke-opacity="1.00" stroke-linejoin="round"/>
<path d="M1673.07,2317.10 L1673.07,2317.10" fill="none" stroke="rgb(0, 0, 0)" stroke-width="7.00" stroke-opacity="1.00" stroke-linejoin="round"/>
<path d="M1672.12,2316.63 L1672.12,2316.63" fill="none" stroke="rgb(0, 0, 0)" stroke-width="7.00" stroke-opacity="1.00" stroke-linejoin="round"/>
<path d="M1671.17,2316.63 L1928.31,2317.10" fill="none" stroke="rgb(0, 0, 0)" stroke-width="7.00" stroke-opacity="1.00" stroke-linejoin="round"/>
<path d="M1665.17,2275.63 L1935.98,2276.10" fill="none" stroke="rgb(0, 0, 0)" stroke-width="7.00" stroke-opacity="1.00" stroke-linejoin="round"/>
<path d="M1663.12,2276.03 L1560.08,2293.43" fill="none" stroke="rgb(0, 0, 0)" stroke-width="7.00" stroke-opacity="1.00" stroke-linejoin="round"/>
<path d="M1764.06,2759.20 L1658.93,2743.10" fill="none" stroke="rgb(0, 0, 0)" stroke-width="7.00" stroke-opacity="1.00" stroke-linejoin="round"/>
<path d="M1658.93,2743.10 L1658.93,2743.10" fill="none" stroke="rgb(0, 0, 0)" stroke-width="7.00" stroke-opacity="1.00" stroke-linejoin="round"/>
<path d="M1659.88,2742.63 L1659.88,2742.63" fill="none" stroke="rgb(0, 0, 0)" stroke-width="7.00" stroke-opacity="1.00" stroke-linejoin="round"/>
<path d="M1660.83,2742.63 L1403.69,2743.10" fill="none" stroke="rgb(0, 0, 0)" stroke-width="7.00" stroke-opacity="1.00" stroke-linejoin="round"/>
<path d="M1666.83,2701.63 L1396.02,2702.10" fill="none" stroke="rgb(0, 0, 0)" stroke-width="7.00" stroke-opacity="1.00" stroke-linejoin="round"/>
<path d="M1668.88,2702.03 L1771.92,2719.43" fill="none" stroke="rgb(0, 0, 0)" stroke-width="7.00" stroke-opacity="1.00" stroke-linejoin="round"/>
<path d="M195.62,2205.89 L210.62,2220.19" fill="none" stroke="rgb(0, 0, 0)" stroke-width="7.00" stroke-opacity="1.00" stroke-linejoin="round"/>
<path d="M210.96,2220.54 L342.77,2220.19" fill="none" stroke="rgb(0, 0, 0)" stroke-width="7.00" stroke-opacity="1.00" stroke-linejoin="round"/>
<path d="M342.43,2219.84 L357.77,2203.10" fill="none" stroke="rgb(0, 0, 0)" stroke-width="7.00" stroke-opacity="1.00" stroke-linejoin="round"/>
<path d="M174.35,2205.89 C191.32,2259.13 362.18,2258.58 381.13,2203.45" fill="none" stroke="rgb(0, 0, 0)" stroke-width="7.00" stroke-opacity="1.00" stroke-linejoin="round"/>
</g>
</svg>
