<?xml version="1.0" encoding="UTF-8" standalone="no"?>
<!DOCTYPE svg PUBLIC "-//W3C//DTD SVG 1.1//EN" "http://www.w3.org/Graphics/SVG/1.1/DTD/svg11.dtd">
<svg width="489.36" height="694.56" viewBox="0.00 0.00 2039.00 2894.00" xmlns="http://www.w3.org/2000/svg" xmlns:xlink="http://www.w3.org/1999/xlink">
<g stroke-linecap="round" id="shirt-fill">
<path d="M196.95,2205.27 L172.72,2205.27 L140.74,2426.70 L418.60,2427.53 L382.40,2203.72 L356.62,2203.10 L341.71,2220.18 L211.24,2219.56 L196.95,2205.27 Z" fill="none" stroke="rgb(0, 0, 0)" stroke-width="4.00" stroke-opacity="1.00" stroke-linejoin="miter"/>
<path d="M1025.75,2099.15 L939.79,2059.56 L794.64,2013.03 L714.57,2226.86 L906.28,2285.10 L1151.68,2285.82 L1343.74,2230.11 L1256.94,2011.91 L1120.46,2057.88 L1025.75,2099.15 Z" fill="none" stroke="rgb(0, 0, 0)" stroke-width="4.00" stroke-opacity="1.00" stroke-linejoin="miter"/>
<path d="M1566.85,2332.96 L1672.05,2316.08 L1928.82,2317.32 L1948.42,2207.25 L1853.99,2027.75 L1735.59,2028.20 L1642.16,2190.46 L1546.20,2208.78 L1566.85,2332.96 Z" fill="none" stroke="rgb(0, 0, 0)" stroke-width="4.00" stroke-opacity="1.00" stroke-linejoin="miter"/>
<path d="M1764.15,2758.96 L1658.95,2742.08 L1402.18,2743.32 L1382.58,2633.25 L1477.01,2453.75 L1595.41,2454.20 L1688.84,2616.46 L1784.80,2634.78 L1764.15,2758.96 Z" fill="none" stroke="rgb(0, 0, 0)" stroke-width="4.00" stroke-opacity="1.00" stroke-linejoin="miter"/>
</g>
</svg>
