<?xml version="1.0" encoding="UTF-8" standalone="no"?>
<!DOCTYPE svg PUBLIC "-//W3C//DTD SVG 1.1//EN" "http://www.w3.org/Graphics/SVG/1.1/DTD/svg11.dtd">
<svg width="489.36" height="694.56" viewBox="0.00 0.00 2039.00 2894.00" xmlns="http://www.w3.org/2000/svg" xmlns:xlink="http://www.w3.org/1999/xlink">
<g stroke-linecap="round" id="back-stroke">
<path d="M1220.00,456.31 C1120.97,479.09 1101.57,583.28 1183.53,647.98" fill="none" stroke="rgb(0, 0, 0)" stroke-width="4.00" stroke-opacity="1.00" stroke-linejoin="round"/>
<path d="M1329.70,645.33 C1329.64,638.60 1329.98,622.86 1333.93,612.37 C1339.78,627.50 1346.33,639.28 1355.85,648.03" fill="none" stroke="rgb(0, 0, 0)" stroke-width="4.00" stroke-opacity="1.00" stroke-linejoin="round"/>
<path d="M1690.00,456.31 C1789.03,479.09 1808.43,583.28 1726.47,647.98" fill="none" stroke="rgb(0, 0, 0)" stroke-width="4.00" stroke-opacity="1.00" stroke-linejoin="round"/>
<path d="M1580.30,644.72 C1580.33,637.69 1579.91,622.55 1576.07,612.37 C1570.22,627.50 1563.67,639.28 1554.15,648.03" fill="none" stroke="rgb(0, 0, 0)" stroke-width="4.00" stroke-opacity="1.00" stroke-linejoin="round"/>
<path d="M1220.00,839.69 C1121.50,817.03 1101.78,713.84 1182.21,649.05" fill="none" stroke="rgb(0, 0, 0)" stroke-width="4.00" stroke-opacity="1.00" stroke-linejoin="round"/>
<path d="M1329.70,651.69 C1329.68,658.88 1330.16,673.64 1333.93,683.63 C1339.54,669.14 1345.78,657.72 1354.69,649.12" fill="none" stroke="rgb(0, 0, 0)" stroke-width="4.00" stroke-opacity="1.00" stroke-linejoin="round"/>
<path d="M1690.00,839.69 C1788.50,817.03 1808.22,713.84 1727.79,649.05" fill="none" stroke="rgb(0, 0, 0)" stroke-width="4.00" stroke-opacity="1.00" stroke-linejoin="round"/>
<path d="M1580.30,651.14 C1580.34,657.98 1579.95,673.33 1576.07,683.63 C1570.46,669.14 1564.22,657.72 1555.31,649.12" fill="none" stroke="rgb(0, 0, 0)" stroke-width="4.00" stroke-opacity="1.00" stroke-linejoin="round"/>
<path d="M1219.56,839.71 L1688.38,839.71" fill="none" stroke="rgb(0, 0, 0)" stroke-width="4.00" stroke-opacity="1.00" stroke-linejoin="round"/>
<path d="M1217.71,455.19 L1162.54,418.99 L1186.14,260.02 L1253.28,239.99 L1455.08,117.98 L1657.24,239.99 L1726.70,261.36 L1749.04,415.35 L1693.69,456.21 L1693.69,456.22" fill="none" stroke="rgb(0, 0, 0)" stroke-width="4.00" stroke-opacity="1.00" stroke-linejoin="miter"/>
</g>
</svg>
