<?xml version="1.0" encoding="UTF-8" standalone="no"?>
<!DOCTYPE svg PUBLIC "-//W3C//DTD SVG 1.1//EN" "http://www.w3.org/Graphics/SVG/1.1/DTD/svg11.dtd">
<svg width="489.36" height="694.56" viewBox="0.00 0.00 2039.00 2894.00" xmlns="http://www.w3.org/2000/svg" xmlns:xlink="http://www.w3.org/1999/xlink">
<g stroke-linecap="round" transform="translate(122.00, -1403.00)" id="bang-fill_복사">
<path d="M235.84,1535.43 C235.84,1535.43 446.70,1561.61 446.70,1561.61 C446.70,1561.61 645.17,1534.96 645.17,1534.96 C733.85,1606.96 761.93,1731.19 740.76,1868.00 C740.76,1868.00 599.79,1857.11 599.79,1857.11 C595.96,1790.20 586.66,1730.95 555.24,1660.26 C549.97,1732.13 541.33,1786.92 524.96,1850.18 C524.96,1850.18 356.32,1850.42 356.32,1850.42 C341.45,1791.30 330.45,1732.27 327.36,1658.92 C298.00,1721.35 284.67,1786.33 282.57,1856.35 C282.57,1856.35 143.51,1868.85 143.51,1868.85 C115.12,1764.55 141.39,1609.50 235.84,1535.43 Z" fill="none" stroke="rgb(0, 0, 0)" stroke-width="4.00" stroke-opacity="1.00" stroke-linejoin="round"/>
</g>
</svg>
