<?xml version="1.0" encoding="UTF-8" standalone="no"?>
<!DOCTYPE svg PUBLIC "-//W3C//DTD SVG 1.1//EN" "http://www.w3.org/Graphics/SVG/1.1/DTD/svg11.dtd">
<svg width="489.36" height="694.56" viewBox="0.00 0.00 2039.00 2894.00" xmlns="http://www.w3.org/2000/svg" xmlns:xlink="http://www.w3.org/1999/xlink">
<g stroke-linecap="round" transform="translate(122.00, -1403.00)" id="bang-stroke">
<path d="M234.40,1534.97 L447.01,1564.20 L647.41,1534.65" fill="none" stroke="rgb(0, 0, 0)" stroke-width="4.00" stroke-opacity="1.00" stroke-linejoin="miter"/>
<path d="M233.86,1535.98 C142.71,1616.89 118.96,1742.98 142.19,1868.80 C142.19,1868.80 283.34,1856.30 283.34,1856.30 C281.49,1771.35 308.69,1708.21 327.61,1658.38 C331.09,1717.41 340.88,1793.54 356.26,1850.57 C356.26,1850.57 446.37,1849.37 446.37,1849.37" fill="none" stroke="rgb(0, 0, 0)" stroke-width="4.00" stroke-opacity="1.00" stroke-linejoin="round"/>
<path d="M648.14,1535.98 C739.29,1616.89 763.04,1742.98 739.81,1868.80 C739.81,1868.80 598.66,1856.30 598.66,1856.30 C600.51,1771.35 573.31,1708.21 554.39,1658.38 C550.91,1717.41 541.12,1793.54 525.74,1850.57 C525.74,1850.57 447.42,1849.20 447.42,1849.20" fill="none" stroke="rgb(0, 0, 0)" stroke-width="4.00" stroke-opacity="1.00" stroke-linejoin="round"/>
</g>
</svg>
