<?xml version="1.0" encoding="UTF-8" standalone="no"?>
<!DOCTYPE svg PUBLIC "-//W3C//DTD SVG 1.1//EN" "http://www.w3.org/Graphics/SVG/1.1/DTD/svg11.dtd">
<svg width="489.36" height="694.56" viewBox="0.00 0.00 2039.00 2894.00" xmlns="http://www.w3.org/2000/svg" xmlns:xlink="http://www.w3.org/1999/xlink">
<g stroke-linecap="round" id="skin2-preview-fill">
<path d="M339.64,427.71 C278.72,419.46 235.13,462.64 253.22,525.15 C275.05,577.26 316.54,588.05 353.40,575.79 C353.40,575.79 357.25,625.33 357.25,625.33 C376.52,670.29 749.01,672.69 773.41,627.53 C773.41,627.53 775.06,574.69 775.06,574.69 C812.52,591.05 862.22,580.56 878.00,521.29 C891.61,466.35 852.40,431.44 788.67,431.02 C788.67,431.02 827.85,353.03 790.47,263.12 C757.26,184.04 660.99,161.31 568.63,161.84 C483.32,162.09 359.64,178.54 329.18,258.72 C295.42,351.38 339.64,427.71 339.64,427.71 Z" fill="none" stroke="rgb(0, 0, 0)" stroke-width="4.00" stroke-opacity="1.00" stroke-linejoin="round"/>
</g>
</svg>
