<?xml version="1.0" encoding="UTF-8" standalone="no"?>
<!DOCTYPE svg PUBLIC "-//W3C//DTD SVG 1.1//EN" "http://www.w3.org/Graphics/SVG/1.1/DTD/svg11.dtd">
<svg width="489.36" height="694.56" viewBox="0.00 0.00 2039.00 2894.00" xmlns="http://www.w3.org/2000/svg" xmlns:xlink="http://www.w3.org/1999/xlink">
<g stroke-linecap="round" id="skin-preview-fill">
<path d="M476.01,655.36 C476.01,655.36 292.76,865.99 292.76,865.99 C292.76,865.99 252.91,879.14 253.09,894.48 C254.21,907.52 303.93,891.69 303.93,891.69 C297.79,909.38 304.23,931.47 322.93,943.09 C322.93,943.09 346.95,914.03 346.95,914.03 C346.95,914.03 449.75,833.02 449.75,833.02 C449.75,833.02 424.05,957.05 424.05,957.05 C424.05,957.05 425.17,1204.00 425.17,1204.00 C446.35,1253.10 545.11,1253.35 569.87,1210.15 C597.62,1251.86 680.97,1250.70 708.43,1204.56 C708.43,1204.56 713.46,958.17 713.46,958.17 C713.46,958.17 688.32,827.99 688.32,827.99 C688.32,827.99 783.30,909.56 783.30,909.56 C783.30,909.56 816.26,949.79 816.26,949.79 C834.17,935.75 844.94,914.22 833.02,897.83 C833.02,897.83 885.45,892.57 889.45,880.51 C883.31,864.68 840.84,861.52 840.84,861.52 C840.84,861.52 662.62,655.91 662.62,655.91 C639.55,622.67 508.42,623.32 476.01,655.36 Z" fill="none" stroke="rgb(0, 0, 0)" stroke-width="4.00" stroke-opacity="1.00" stroke-linejoin="round"/>
</g>
</svg>
