<?xml version="1.0" encoding="UTF-8" standalone="no"?>
<!DOCTYPE svg PUBLIC "-//W3C//DTD SVG 1.1//EN" "http://www.w3.org/Graphics/SVG/1.1/DTD/svg11.dtd">
<svg width="489.36" height="694.56" viewBox="0.00 0.00 2039.00 2894.00" xmlns="http://www.w3.org/2000/svg" xmlns:xlink="http://www.w3.org/1999/xlink">
<g stroke-linecap="round" id="skin">
<path d="M312.92,668.32 L312.93,424.80 L614.90,268.34 L833.95,341.87 L1029.53,434.19 L1221.79,340.03 L1445.03,269.12 L1743.51,424.80 L1742.17,666.15 L1598.28,684.53 L1654.04,702.32 L1669.21,790.56 L1437.49,801.52 L1227.51,776.90 L1030.32,711.91 L832.10,775.07 L616.40,799.86 L392.47,789.48 L404.02,699.13 L477.69,681.98 L312.92,668.32 Z" fill="none" stroke="rgb(0, 0, 0)" stroke-width="4.00" stroke-opacity="1.00" stroke-linejoin="miter"/>
<path d="M421.79,936.65 L638.00,880.49 L815.57,1000.97 L856.24,1183.15 L830.02,1332.75 L793.51,1430.60 L710.22,1479.74 L418.88,1476.95 L340.58,1430.82 L311.91,1339.62 L282.56,1180.74 L329.35,982.85 L560.39,1152.59 L421.79,936.65 Z" fill="none" stroke="rgb(0, 0, 0)" stroke-width="4.00" stroke-opacity="1.00" stroke-linejoin="miter"/>
<path d="M860.67,1340.98 L903.89,1303.70 L988.72,1327.48 L1008.71,1418.78 L955.76,1479.30 L873.64,1482.00 L860.67,1340.98 Z" fill="none" stroke="rgb(0, 0, 0)" stroke-width="4.00" stroke-opacity="1.00" stroke-linejoin="miter"/>
<path d="M263.65,1469.75 L255.40,1323.12 L215.58,1294.47 L140.81,1318.75 L117.50,1401.29 L183.05,1477.52 L263.65,1469.75 Z" fill="none" stroke="rgb(0, 0, 0)" stroke-width="4.00" stroke-opacity="1.00" stroke-linejoin="miter"/>
<path d="M1364.55,1408.49 L1865.26,1408.36 L1816.31,1742.05 L1843.32,1971.20 L1393.14,1970.04 L1413.79,1743.52 L1364.55,1408.49 Z" fill="none" stroke="rgb(0, 0, 0)" stroke-width="4.00" stroke-opacity="1.00" stroke-linejoin="miter"/>
<path d="M128.21,1580.41 L147.10,1907.85 L404.58,1885.57 L750.53,1882.34 L997.58,1907.10 L1020.22,1581.37 L864.74,1586.38 L775.67,1540.52 L575.73,1496.77 L373.38,1540.36 L280.50,1588.18 L128.21,1580.41 Z" fill="none" stroke="rgb(0, 0, 0)" stroke-width="4.00" stroke-opacity="1.00" stroke-linejoin="miter"/>
<path d="M1335.77,1453.52 L1449.74,1105.67 L1770.05,1102.97 L1885.86,1450.28 L1938.57,1179.67 L1831.37,997.39 L1643.65,865.85 L1578.30,866.93 L1390.87,993.86 L1282.30,1177.51 L1335.77,1453.52 Z" fill="none" stroke="rgb(0, 0, 0)" stroke-width="4.00" stroke-opacity="1.00" stroke-linejoin="miter"/>
<path d="M172.15,2206.02 L382.07,2203.60 L433.65,2509.88 L1112.80,2508.32 L1111.34,2790.24 L903.18,2789.98 L876.36,2826.32 L635.83,2825.81 L606.29,2788.19 L130.73,2792.56 L126.42,2518.61 L172.15,2206.02 Z" fill="none" stroke="rgb(0, 0, 0)" stroke-width="4.00" stroke-opacity="1.00" stroke-linejoin="miter"/>
<path d="M674.92,2333.11 L794.31,2013.04 L941.42,2059.29 L1121.01,2057.73 L1257.67,2012.19 L1379.81,2327.37 L1166.05,2391.80 L891.15,2392.85 L674.92,2333.11 Z" fill="none" stroke="rgb(0, 0, 0)" stroke-width="4.00" stroke-opacity="1.00" stroke-linejoin="miter"/>
<path d="M1546.32,2208.53 L1641.53,2190.09 L1734.78,2029.10 L1854.05,2027.53 L1948.60,2206.42 L1920.66,2354.69 L1843.75,2385.25 L1683.12,2386.82 L1571.98,2363.78 L1546.32,2208.53 Z" fill="none" stroke="rgb(0, 0, 0)" stroke-width="4.00" stroke-opacity="1.00" stroke-linejoin="miter"/>
<path d="M1784.68,2633.53 L1689.47,2615.09 L1596.22,2454.10 L1476.95,2452.53 L1382.40,2631.42 L1410.34,2779.69 L1487.25,2810.25 L1647.88,2811.82 L1759.02,2788.78 L1784.68,2633.53 Z" fill="none" stroke="rgb(0, 0, 0)" stroke-width="4.00" stroke-opacity="1.00" stroke-linejoin="miter"/>
</g>
</svg>
