<?xml version="1.0" encoding="UTF-8" standalone="no"?>
<!DOCTYPE svg PUBLIC "-//W3C//DTD SVG 1.1//EN" "http://www.w3.org/Graphics/SVG/1.1/DTD/svg11.dtd">
<svg width="489.36" height="694.56" viewBox="0.00 0.00 2039.00 2894.00" xmlns="http://www.w3.org/2000/svg" xmlns:xlink="http://www.w3.org/1999/xlink">
<g stroke-linecap="round" id="face-preview-fill">
<path d="M403.13,576.34 C409.61,576.35 424.36,579.05 430.99,581.90 C434.52,583.44 441.04,587.22 443.71,589.46 C446.45,591.78 451.21,597.18 452.53,599.43 C454.36,602.63 456.58,610.46 456.60,613.74 C456.58,617.03 454.36,624.85 452.53,628.06 C451.21,630.30 446.45,635.71 443.71,638.03 C441.04,640.27 434.52,644.05 430.99,645.59 C424.36,648.44 409.61,651.13 403.13,651.15 C396.64,651.13 381.89,648.44 375.26,645.59 C371.73,644.05 365.21,640.27 362.54,638.03 C359.81,635.71 355.04,630.30 353.72,628.06 C351.89,624.85 349.68,617.03 349.65,613.74 C349.68,610.46 351.89,602.63 353.72,599.43 C355.04,597.18 359.81,591.78 362.54,589.46 C365.21,587.22 371.73,583.44 375.26,581.90 C381.89,579.05 396.64,576.35 403.13,576.34 Z" fill="none" stroke="rgb(0, 0, 0)" stroke-width="4.00" stroke-opacity="1.00" stroke-linejoin="round"/>
<path d="M728.13,574.34 C734.61,574.35 749.36,577.05 755.99,579.90 C759.52,581.44 766.04,585.22 768.71,587.46 C771.45,589.78 776.21,595.18 777.53,597.43 C779.36,600.63 781.58,608.46 781.60,611.74 C781.58,615.03 779.36,622.85 777.53,626.06 C776.21,628.30 771.45,633.71 768.71,636.03 C766.04,638.27 759.52,642.05 755.99,643.59 C749.36,646.44 734.61,649.13 728.13,649.15 C721.64,649.13 706.89,646.44 700.26,643.59 C696.73,642.05 690.21,638.27 687.54,636.03 C684.81,633.71 680.04,628.30 678.72,626.06 C676.89,622.85 674.68,615.03 674.65,611.74 C674.68,608.46 676.89,600.63 678.72,597.43 C680.04,595.18 684.81,589.78 687.54,587.46 C690.21,585.22 696.73,581.44 700.26,579.90 C706.89,577.05 721.64,574.35 728.13,574.34 Z" fill="none" stroke="rgb(0, 0, 0)" stroke-width="4.00" stroke-opacity="1.00" stroke-linejoin="round"/>
</g>
</svg>
