<?xml version="1.0" encoding="UTF-8" standalone="no"?>
<!DOCTYPE svg PUBLIC "-//W3C//DTD SVG 1.1//EN" "http://www.w3.org/Graphics/SVG/1.1/DTD/svg11.dtd">
<svg width="489.36" height="694.56" viewBox="0.00 0.00 2039.00 2894.00" xmlns="http://www.w3.org/2000/svg" xmlns:xlink="http://www.w3.org/1999/xlink">
<g stroke-linecap="round" id="face-fill">
<path d="M405.13,1375.34 C411.61,1375.35 426.36,1378.05 432.99,1380.90 C436.52,1382.44 443.04,1386.22 445.71,1388.46 C448.45,1390.78 453.21,1396.18 454.53,1398.43 C456.36,1401.63 458.58,1409.46 458.60,1412.74 C458.58,1416.03 456.36,1423.85 454.53,1427.06 C453.21,1429.30 448.45,1434.71 445.71,1437.03 C443.04,1439.27 436.52,1443.05 432.99,1444.59 C426.36,1447.44 411.61,1450.13 405.13,1450.15 C398.64,1450.13 383.89,1447.44 377.26,1444.59 C373.73,1443.05 367.21,1439.27 364.54,1437.03 C361.81,1434.71 357.04,1429.30 355.72,1427.06 C353.89,1423.85 351.68,1416.03 351.65,1412.74 C351.68,1409.46 353.89,1401.63 355.72,1398.43 C357.04,1396.18 361.81,1390.78 364.54,1388.46 C367.21,1386.22 373.73,1382.44 377.26,1380.90 C383.89,1378.05 398.64,1375.35 405.13,1375.34 Z" fill="none" stroke="rgb(0, 0, 0)" stroke-width="4.00" stroke-opacity="1.00" stroke-linejoin="round"/>
<path d="M730.13,1373.34 C736.61,1373.35 751.36,1376.05 757.99,1378.90 C761.52,1380.44 768.04,1384.22 770.71,1386.46 C773.45,1388.78 778.21,1394.18 779.53,1396.43 C781.36,1399.63 783.58,1407.46 783.60,1410.74 C783.58,1414.03 781.36,1421.85 779.53,1425.06 C778.21,1427.30 773.45,1432.71 770.71,1435.03 C768.04,1437.27 761.52,1441.05 757.99,1442.59 C751.36,1445.44 736.61,1448.13 730.13,1448.15 C723.64,1448.13 708.89,1445.44 702.26,1442.59 C698.73,1441.05 692.21,1437.27 689.54,1435.03 C686.81,1432.71 682.04,1427.30 680.72,1425.06 C678.89,1421.85 676.68,1414.03 676.65,1410.74 C676.68,1407.46 678.89,1399.63 680.72,1396.43 C682.04,1394.18 686.81,1388.78 689.54,1386.46 C692.21,1384.22 698.73,1380.44 702.26,1378.90 C708.89,1376.05 723.64,1373.35 730.13,1373.34 Z" fill="none" stroke="rgb(0, 0, 0)" stroke-width="4.00" stroke-opacity="1.00" stroke-linejoin="round"/>
<path d="M756.13,2759.03 L738.36,2524.38 L772.57,2524.85 L756.13,2759.03 Z" fill="none" stroke="rgb(0, 0, 0)" stroke-width="4.00" stroke-opacity="1.00" stroke-linejoin="miter"/>
<path d="M278.13,2761.03 L260.36,2526.38 L294.57,2526.85 L278.13,2761.03 Z" fill="none" stroke="rgb(0, 0, 0)" stroke-width="4.00" stroke-opacity="1.00" stroke-linejoin="miter"/>
</g>
</svg>
