<?xml version="1.0" encoding="UTF-8" standalone="no"?>
<!DOCTYPE svg PUBLIC "-//W3C//DTD SVG 1.1//EN" "http://www.w3.org/Graphics/SVG/1.1/DTD/svg11.dtd">
<svg width="489.36" height="694.56" viewBox="0.00 0.00 2039.00 2894.00" xmlns="http://www.w3.org/2000/svg" xmlns:xlink="http://www.w3.org/1999/xlink">
<g stroke-linecap="round" transform="translate(20.00, -804.00)" id="highlight-preview-fill">
<path d="M438.29,1279.48 C439.86,1279.78 443.40,1281.40 444.64,1282.38 C445.86,1283.39 448.11,1286.50 448.69,1287.94 C449.22,1289.40 449.58,1293.17 449.34,1294.69 C449.05,1296.20 447.42,1299.61 446.42,1300.80 C445.39,1301.96 442.20,1304.11 440.72,1304.65 C439.21,1305.15 435.33,1305.46 433.75,1305.20 C432.19,1304.90 428.64,1303.28 427.40,1302.30 C426.18,1301.29 423.93,1298.18 423.35,1296.74 C422.82,1295.28 422.46,1291.51 422.70,1289.99 C422.99,1288.48 424.62,1285.07 425.62,1283.88 C426.65,1282.72 429.84,1280.57 431.33,1280.03 C432.83,1279.53 436.71,1279.23 438.29,1279.48 Z" fill="none" stroke="rgb(0, 0, 0)" stroke-width="4.00" stroke-opacity="1.00" stroke-linejoin="round"/>
<path d="M453.65,1300.39 C454.90,1300.63 457.46,1302.21 458.21,1303.20 C458.93,1304.22 459.61,1307.06 459.42,1308.27 C459.18,1309.46 457.58,1311.91 456.55,1312.62 C455.51,1313.29 452.56,1313.90 451.31,1313.70 C450.06,1313.46 447.50,1311.88 446.74,1310.89 C446.03,1309.87 445.35,1307.03 445.54,1305.82 C445.78,1304.63 447.38,1302.18 448.40,1301.47 C449.45,1300.80 452.40,1300.19 453.65,1300.39 Z" fill="none" stroke="rgb(0, 0, 0)" stroke-width="4.00" stroke-opacity="1.00" stroke-linejoin="round"/>
<path d="M660.26,1279.00 C661.86,1278.96 665.66,1279.79 667.08,1280.49 C668.48,1281.23 671.35,1283.79 672.21,1285.08 C673.04,1286.39 674.19,1289.99 674.27,1291.53 C674.31,1293.07 673.44,1296.75 672.71,1298.12 C671.95,1299.48 669.29,1302.25 667.95,1303.09 C666.59,1303.90 662.85,1305.02 661.26,1305.10 C659.67,1305.14 655.86,1304.31 654.44,1303.61 C653.04,1302.87 650.17,1300.31 649.31,1299.02 C648.48,1297.71 647.33,1294.11 647.25,1292.57 C647.21,1291.03 648.08,1287.35 648.81,1285.98 C649.57,1284.62 652.23,1281.85 653.57,1281.01 C654.93,1280.20 658.67,1279.08 660.26,1279.00 Z" fill="none" stroke="rgb(0, 0, 0)" stroke-width="4.00" stroke-opacity="1.00" stroke-linejoin="round"/>
<path d="M679.70,1296.19 C680.97,1296.17 683.80,1297.17 684.75,1297.98 C685.66,1298.82 686.92,1301.46 686.99,1302.68 C687.02,1303.90 685.96,1306.62 685.11,1307.53 C684.23,1308.41 681.48,1309.63 680.21,1309.70 C678.94,1309.73 676.11,1308.72 675.16,1307.91 C674.25,1307.07 672.98,1304.43 672.92,1303.22 C672.89,1302.00 673.95,1299.27 674.79,1298.36 C675.68,1297.48 678.43,1296.26 679.70,1296.19 Z" fill="none" stroke="rgb(0, 0, 0)" stroke-width="4.00" stroke-opacity="1.00" stroke-linejoin="round"/>
</g>
</svg>
