<?xml version="1.0" encoding="UTF-8" standalone="no"?>
<!DOCTYPE svg PUBLIC "-//W3C//DTD SVG 1.1//EN" "http://www.w3.org/Graphics/SVG/1.1/DTD/svg11.dtd">
<svg width="489.36" height="694.56" viewBox="0.00 0.00 2039.00 2894.00" xmlns="http://www.w3.org/2000/svg" xmlns:xlink="http://www.w3.org/1999/xlink">
<g stroke-linecap="round" transform="translate(20.00, -804.00)" id="pupil-preview-fill">
<path d="M439.64,1273.43 C465.12,1276.48 484.78,1302.73 478.40,1332.67 C473.59,1318.25 459.14,1315.28 450.85,1322.15 C445.99,1345.42 410.94,1337.63 413.71,1317.87 C404.32,1309.49 393.58,1308.86 384.78,1318.58 C385.75,1293.33 412.69,1269.50 439.64,1273.43 Z" fill="none" stroke="rgb(0, 0, 0)" stroke-width="4.00" stroke-opacity="1.00" stroke-linejoin="round"/>
<path d="M657.62,1272.91 C632.15,1275.95 612.49,1302.21 618.87,1332.14 C623.68,1317.72 638.13,1314.76 646.42,1321.63 C651.28,1344.90 686.33,1337.10 683.55,1317.34 C692.94,1308.96 703.69,1308.34 712.49,1318.05 C711.52,1292.80 684.57,1268.97 657.62,1272.91 Z" fill="none" stroke="rgb(0, 0, 0)" stroke-width="4.00" stroke-opacity="1.00" stroke-linejoin="round"/>
</g>
</svg>
