<?xml version="1.0" encoding="UTF-8" standalone="no"?>
<!DOCTYPE svg PUBLIC "-//W3C//DTD SVG 1.1//EN" "http://www.w3.org/Graphics/SVG/1.1/DTD/svg11.dtd">
<svg width="489.36" height="694.56" viewBox="0.00 0.00 2039.00 2894.00" xmlns="http://www.w3.org/2000/svg" xmlns:xlink="http://www.w3.org/1999/xlink">
<g stroke-linecap="round" id="back-preview-fill">
<path d="M357.81,131.71 L565.51,85.77 L767.71,131.20 L567.01,158.31 L357.81,131.71 Z" fill="none" stroke="rgb(0, 0, 0)" stroke-width="4.00" stroke-opacity="1.00" stroke-linejoin="miter"/>
<path d="M326.64,444.18 C326.64,444.18 798.88,444.64 798.88,444.64 C902.01,474.90 910.92,571.83 835.79,635.84 C835.79,635.84 688.16,635.84 688.16,635.84 C688.41,624.78 687.22,614.69 683.69,598.02 C679.58,613.55 672.57,626.62 657.66,637.46 C657.66,637.46 461.64,635.84 461.64,635.84 C451.52,626.16 445.51,615.37 440.09,598.42 C434.59,614.42 435.79,636.65 435.79,636.65 C435.79,636.65 292.63,637.50 290.84,636.24 C211.29,580.36 223.21,468.37 326.64,444.18 Z" fill="none" stroke="rgb(0, 0, 0)" stroke-width="4.00" stroke-opacity="1.00" stroke-linejoin="round"/>
</g>
</svg>
